# Aspose.3D Wavefront OBJ Exporter
# Copyright 2004-2019 Aspose Pty Ltd.
# File created: java.util.GregorianCalendar[time=1561589920906,areFieldsSet=true,areAllFieldsSet=true,lenient=true,zone=sun.util.calendar.ZoneInfo[id="America/Los_Angeles",offset=-28800000,dstSavings=3600000,useDaylight=true,transitions=185,lastRule=java.util.SimpleTimeZone[id=America/Los_Angeles,offset=-28800000,dstSavings=3600000,useDaylight=true,startYear=0,startMode=3,startMonth=2,startDay=8,startDayOfWeek=1,startTime=7200000,startTimeMode=0,endMode=3,endMonth=10,endDay=1,endDayOfWeek=1,endTime=7200000,endTimeMode=0]],firstDayOfWeek=1,minimalDaysInFirstWeek=1,ERA=1,YEAR=2019,MONTH=5,WEEK_OF_YEAR=26,WEEK_OF_MONTH=5,DAY_OF_MONTH=26,DAY_OF_YEAR=177,DAY_OF_WEEK=4,DAY_OF_WEEK_IN_MONTH=4,AM_PM=1,HOUR=3,HOUR_OF_DAY=15,MINUTE=58,SECOND=40,MILLISECOND=906,ZONE_OFFSET=-28800000,DST_OFFSET=3600000]


#
# object obj_1241276575
#

v 10 5 0
v 10 5 2
v 10.46689072771181016 5 1.94473984079535312
v 10.90798099947909344 5 1.78201304837673584
v 11.29889609666036776 5 1.52081193120006184
v 11.61803398874989488 5 1.17557050458494628
v 11.84775906502257392 5 0.76536686473017968
v 11.97537668119027648 5 0.3128689300804614
v 11.99383466746625616 5 -0.1569181914556902
v 11.90211303259030736 5 -0.61803398874989472
v 11.70528032870818432 5 -1.0449971294318976
v 11.41421356237309584 5 -1.41421356237309496
v 11.04499712943189848 5 -1.70528032870818432
v 10.61803398874989488 5 -1.90211303259030736
v 10.15691819145568964 5 -1.993834667466256
v 9.68713106991953768 5 -1.97537668119027536
v 9.23463313526982076 5 -1.84775906502257376
v 8.82442949541505328 5 -1.61803398874989512
v 8.47918806879993704 5 -1.29889609666036688
v 8.21798695162326352 5 -0.90798099947909376
v 8.05526015920464644 5 -0.46689072771181032
v 8 5 -3.6739403974420594E-16
v 10 -5 0
v 10 -5 2
v 10.46689072771181016 -5 1.94473984079535312
v 10.90798099947909344 -5 1.78201304837673584
v 11.29889609666036776 -5 1.52081193120006184
v 11.61803398874989488 -5 1.17557050458494628
v 11.84775906502257392 -5 0.76536686473017968
v 11.97537668119027648 -5 0.3128689300804614
v 11.99383466746625616 -5 -0.1569181914556902
v 11.90211303259030736 -5 -0.61803398874989472
v 11.70528032870818432 -5 -1.0449971294318976
v 11.41421356237309584 -5 -1.41421356237309496
v 11.04499712943189848 -5 -1.70528032870818432
v 10.61803398874989488 -5 -1.90211303259030736
v 10.15691819145568964 -5 -1.993834667466256
v 9.68713106991953768 -5 -1.97537668119027536
v 9.23463313526982076 -5 -1.84775906502257376
v 8.82442949541505328 -5 -1.61803398874989512
v 8.47918806879993704 -5 -1.29889609666036688
v 8.21798695162326352 -5 -0.90798099947909376
v 8.05526015920464644 -5 -0.46689072771181032
v 8 -5 -3.6739403974420594E-16
# 44 vertices

vn 0 0 0
vn 0 0 1
vn 0.2334453638559054 0 0.97236992039767648
vn 0.45399049973954672 0 0.89100652418836784
vn 0.64944804833018376 0 0.76040596560003088
vn 0.80901699437494752 0 0.58778525229247312
vn 0.92387953251128672 0 0.38268343236508984
vn 0.98768834059513776 0 0.1564344650402307
vn 0.996917333733128 0 -0.0784590957278451
vn 0.9510565162951536 0 -0.30901699437494736
vn 0.85264016435409232 0 -0.5224985647159488
vn 0.7071067811865476 0 -0.70710678118654744
vn 0.52249856471594888 0 -0.85264016435409216
vn 0.30901699437494716 0 -0.95105651629515392
vn 0.07845909572784507 0 -0.996917333733128
vn -0.1564344650402312 0 -0.98768834059513792
vn -0.38268343236508968 0 -0.92387953251128688
vn -0.58778525229247304 0 -0.80901699437494752
vn -0.7604059656000312 0 -0.64944804833018344
vn -0.89100652418836784 0 -0.45399049973954688
vn -0.97236992039767664 0 -0.23344536385590516
vn -1 0 -1.8369701987210297E-16
vn 0 1 0
vn 0 -1 0
# 24 vertex normals

# 0 texture coords

g obj_1241276575
s 1
f 2/1/2 1/2/1 23/3/1 24/4/2
f 3/5/3 2/6/2 24/7/2 25/8/3
f 4/9/4 3/10/3 25/11/3 26/12/4
f 5/13/5 4/14/4 26/15/4 27/16/5
f 6/17/6 5/18/5 27/19/5 28/20/6
f 7/21/7 6/22/6 28/23/6 29/24/7
f 8/25/8 7/26/7 29/27/7 30/28/8
f 9/29/9 8/30/8 30/31/8 31/32/9
f 10/33/10 9/34/9 31/35/9 32/36/10
f 11/37/11 10/38/10 32/39/10 33/40/11
f 12/41/12 11/42/11 33/43/11 34/44/12
f 13/45/13 12/46/12 34/47/12 35/48/13
f 14/49/14 13/50/13 35/51/13 36/52/14
f 15/53/15 14/54/14 36/55/14 37/56/15
f 16/57/16 15/58/15 37/59/15 38/60/16
f 17/61/17 16/62/16 38/63/16 39/64/17
f 18/65/18 17/66/17 39/67/17 40/68/18
f 19/69/19 18/70/18 40/71/18 41/72/19
f 20/73/20 19/74/19 41/75/19 42/76/20
f 21/77/21 20/78/20 42/79/20 43/80/21
f 22/81/22 21/82/21 43/83/21 44/84/22
f 1/85/23 22/86/22 44/87/22 23/88/23
f 1/89/23 2/90/23 3/91/23 4/92/23 5/93/23 6/94/23 7/95/23 8/96/23 9/97/23 10/98/23 11/99/23 12/100/23 13/101/23 14/102/23 15/103/23 16/104/23 17/105/23 18/106/23 19/107/23 20/108/23 21/109/23 22/110/23
f 44/111/24 43/112/24 42/113/24 41/114/24 40/115/24 39/116/24 38/117/24 37/118/24 36/119/24 35/120/24 34/121/24 33/122/24 32/123/24 31/124/24 30/125/24 29/126/24 28/127/24 27/128/24 26/129/24 25/130/24 24/131/24 23/132/24
#24 polygons


#
# object obj_36333492
#

v 0 5 2
v 0.6180339887498948 5 1.90211303259030704
v 1.17557050458494628 5 1.61803398874989488
v 1.61803398874989488 5 1.17557050458494606
v 1.90211303259030704 5 0.61803398874989488
v 2 5 1.2246467991473532E-16
v 1.90211303259030704 5 -0.61803398874989512
v 1.61803398874989488 5 -1.17557050458494606
v 1.1755705045849465 5 -1.61803398874989472
v 0.61803398874989504 5 -1.90211303259030704
v 2.4492935982947064E-16 5 -2
v -0.61803398874989544 5 -1.90211303259030704
v -1.17557050458494672 5 -1.61803398874989448
v -1.61803398874989472 5 -1.1755705045849465
v -1.90211303259030704 5 -0.61803398874989512
v -2 5 -3.6739403974420594E-16
v -1.90211303259030736 5 0.61803398874989448
v -1.618033988749894 5 1.17557050458494738
v -1.17557050458494672 5 1.61803398874989472
v -0.6180339887498952 5 1.90211303259030704
v 0 -5 2
v 0.6180339887498948 -5 1.90211303259030704
v 1.17557050458494628 -5 1.61803398874989488
v 1.61803398874989488 -5 1.17557050458494606
v 1.90211303259030704 -5 0.61803398874989488
v 2 -5 1.2246467991473532E-16
v 1.90211303259030704 -5 -0.61803398874989512
v 1.61803398874989488 -5 -1.17557050458494606
v 1.1755705045849465 -5 -1.61803398874989472
v 0.61803398874989504 -5 -1.90211303259030704
v 2.4492935982947064E-16 -5 -2
v -0.61803398874989544 -5 -1.90211303259030704
v -1.17557050458494672 -5 -1.61803398874989448
v -1.61803398874989472 -5 -1.1755705045849465
v -1.90211303259030704 -5 -0.61803398874989512
v -2 -5 -3.6739403974420594E-16
v -1.90211303259030736 -5 0.61803398874989448
v -1.618033988749894 -5 1.17557050458494738
v -1.17557050458494672 -5 1.61803398874989472
v -0.6180339887498952 -5 1.90211303259030704
# 40 vertices

vn 0 0 1
vn 0.30901699437494744 0 0.95105651629515376
vn 0.58778525229247312 0 0.80901699437494752
vn 0.80901699437494768 0 0.58778525229247312
vn 0.95105651629515376 0 0.30901699437494752
vn 1 0 6.123233995736766E-17
vn 0.9510565162951536 0 -0.30901699437494756
vn 0.80901699437494768 0 -0.58778525229247312
vn 0.58778525229247328 0 -0.80901699437494736
vn 0.30901699437494752 0 -0.9510565162951536
vn 1.2246467991473532E-16 0 -1
vn -0.30901699437494772 0 -0.9510565162951536
vn -0.58778525229247336 0 -0.8090169943749472
vn -0.80901699437494736 0 -0.58778525229247328
vn -0.9510565162951536 0 -0.30901699437494756
vn -1 0 -1.8369701987210297E-16
vn -0.9510565162951536 0 0.30901699437494724
vn -0.80901699437494704 0 0.58778525229247368
vn -0.58778525229247336 0 0.80901699437494736
vn -0.3090169943749476 0 0.9510565162951536
vn 0 1 0
vn 0 -1 0
# 22 vertex normals

# 0 texture coords

g obj_36333492
s 2
f 46/1/26 45/2/25 65/3/25 66/4/26
f 47/5/27 46/6/26 66/7/26 67/8/27
f 48/9/28 47/10/27 67/11/27 68/12/28
f 49/13/29 48/14/28 68/15/28 69/16/29
f 50/17/30 49/18/29 69/19/29 70/20/30
f 51/21/31 50/22/30 70/23/30 71/24/31
f 52/25/32 51/26/31 71/27/31 72/28/32
f 53/29/33 52/30/32 72/31/32 73/32/33
f 54/33/34 53/34/33 73/35/33 74/36/34
f 55/37/35 54/38/34 74/39/34 75/40/35
f 56/41/36 55/42/35 75/43/35 76/44/36
f 57/45/37 56/46/36 76/47/36 77/48/37
f 58/49/38 57/50/37 77/51/37 78/52/38
f 59/53/39 58/54/38 78/55/38 79/56/39
f 60/57/40 59/58/39 79/59/39 80/60/40
f 61/61/41 60/62/40 80/63/40 81/64/41
f 62/65/42 61/66/41 81/67/41 82/68/42
f 63/69/43 62/70/42 82/71/42 83/72/43
f 64/73/44 63/74/43 83/75/43 84/76/44
f 45/77/45 64/78/44 84/79/44 65/80/45
f 45/81/45 46/82/45 47/83/45 48/84/45 49/85/45 50/86/45 51/87/45 52/88/45 53/89/45 54/90/45 55/91/45 56/92/45 57/93/45 58/94/45 59/95/45 60/96/45 61/97/45 62/98/45 63/99/45 64/100/45
f 84/101/46 83/102/46 82/103/46 81/104/46 80/105/46 79/106/46 78/107/46 77/108/46 76/109/46 75/110/46 74/111/46 73/112/46 72/113/46 71/114/46 70/115/46 69/116/46 68/117/46 67/118/46 66/119/46 65/120/46
#22 polygons

