# Aspose.3D Wavefront OBJ Exporter
# Copyright 2004-2019 Aspose Pty Ltd.
# File created: java.util.GregorianCalendar[time=1561589614919,areFieldsSet=true,areAllFieldsSet=true,lenient=true,zone=sun.util.calendar.ZoneInfo[id="America/Los_Angeles",offset=-28800000,dstSavings=3600000,useDaylight=true,transitions=185,lastRule=java.util.SimpleTimeZone[id=America/Los_Angeles,offset=-28800000,dstSavings=3600000,useDaylight=true,startYear=0,startMode=3,startMonth=2,startDay=8,startDayOfWeek=1,startTime=7200000,startTimeMode=0,endMode=3,endMonth=10,endDay=1,endDayOfWeek=1,endTime=7200000,endTimeMode=0]],firstDayOfWeek=1,minimalDaysInFirstWeek=1,ERA=1,YEAR=2019,MONTH=5,WEEK_OF_YEAR=26,WEEK_OF_MONTH=5,DAY_OF_MONTH=26,DAY_OF_YEAR=177,DAY_OF_WEEK=4,DAY_OF_WEEK_IN_MONTH=4,AM_PM=1,HOUR=3,HOUR_OF_DAY=15,MINUTE=53,SECOND=34,MILLISECOND=919,ZONE_OFFSET=-28800000,DST_OFFSET=3600000]


#
# object obj_1022308509
#

v 15 8 2
v 15.61803398874989488 8 1.90211303259030704
v 16.17557050458494672 8 1.61803398874989488
v 16.61803398874989312 8 1.17557050458494606
v 16.90211303259030736 8 0.61803398874989488
v 17 8 1.2246467991473532E-16
v 16.90211303259030736 8 -0.61803398874989512
v 16.61803398874989312 8 -1.17557050458494606
v 16.17557050458494672 8 -1.61803398874989472
v 15.61803398874989488 8 -1.90211303259030704
v 15 8 -2
v 14.38196601125010336 8 -1.90211303259030704
v 13.82442949541505328 8 -1.61803398874989448
v 13.38196601125010512 8 -1.1755705045849465
v 13.09788696740969272 8 -0.61803398874989512
v 13 8 -3.6739403974420594E-16
v 13.09788696740969272 8 0.61803398874989448
v 13.38196601125010688 8 1.17557050458494738
v 13.82442949541505328 8 1.61803398874989472
v 14.38196601125010512 8 1.90211303259030704
v 10 -5 2
v 10.61803398874989488 -5 1.90211303259030704
v 11.17557050458494672 -5 1.61803398874989488
v 11.61803398874989488 -5 1.17557050458494606
v 11.90211303259030736 -5 0.61803398874989488
v 12 -5 1.2246467991473532E-16
v 11.90211303259030736 -5 -0.61803398874989512
v 11.61803398874989488 -5 -1.17557050458494606
v 11.17557050458494672 -5 -1.61803398874989472
v 10.61803398874989488 -5 -1.90211303259030704
v 10 -5 -2
v 9.38196601125010512 -5 -1.90211303259030704
v 8.82442949541505328 -5 -1.61803398874989448
v 8.38196601125010512 -5 -1.1755705045849465
v 8.09788696740969272 -5 -0.61803398874989512
v 8 -5 -3.6739403974420594E-16
v 8.09788696740969272 -5 0.61803398874989448
v 8.38196601125010688 -5 1.17557050458494738
v 8.82442949541505328 -5 1.61803398874989472
v 9.38196601125010512 -5 1.90211303259030704
# 40 vertices

vn 0.62339516323176192 -0.23976737047375456 0.74423791795053424
vn 0.72811230766125344 -0.28004319525432824 0.62564229094902976
vn 0.81453533456112288 -0.31328282098504728 0.48824795219954664
vn 0.87937575157582176 -0.33822144291377764 0.33511870000610356
vn 0.91966777887142288 -0.35371837648900872 0.17057106038154238
vn 0.93334560620305968 -0.35897907930886908 3.3445796315558925E-17
vn 0.91966777887142288 -0.35371837648900872 -0.17057106038154246
vn 0.87937575157582176 -0.33822144291377764 -0.33511870000610356
vn 0.81453533456112288 -0.31328282098504728 -0.48824795219954648
vn 0.72811230766125344 -0.28004319525432824 -0.62564229094902976
vn 0.623395163231762 -0.23976737047375464 -0.74423791795053424
vn 0.50332968515519064 -0.19358834044430408 -0.84212990831913648
vn 0.36955876805367712 -0.14213798771295274 -0.91827180584158256
vn 0.21969486802537936 -0.08449802616360744 -0.97190238632167472
vn 0.02953431866321059 -0.01135935333200407 -0.9994992191657672
vn -0.93334560620305968 0.35897907930886908 -5.1172068362805034E-15
vn 0.02953431866321062 -0.01135935333200408 0.99949921916576752
vn 0.21969486802537964 -0.08449802616360755 0.9719023863216744
vn 0.36955876805367712 -0.14213798771295272 0.91827180584158256
vn 0.50332968515519064 -0.19358834044430408 0.84212990831913648
vn 0 1 0
vn 0 -1 0
# 22 vertex normals

# 0 texture coords

g obj_1022308509
s 1
f 2/1/2 1/2/1 21/3/1 22/4/2
f 3/5/3 2/6/2 22/7/2 23/8/3
f 4/9/4 3/10/3 23/11/3 24/12/4
f 5/13/5 4/14/4 24/15/4 25/16/5
f 6/17/6 5/18/5 25/19/5 26/20/6
f 7/21/7 6/22/6 26/23/6 27/24/7
f 8/25/8 7/26/7 27/27/7 28/28/8
f 9/29/9 8/30/8 28/31/8 29/32/9
f 10/33/10 9/34/9 29/35/9 30/36/10
f 11/37/11 10/38/10 30/39/10 31/40/11
f 12/41/12 11/42/11 31/43/11 32/44/12
f 13/45/13 12/46/12 32/47/12 33/48/13
f 14/49/14 13/50/13 33/51/13 34/52/14
f 15/53/15 14/54/14 34/55/14 35/56/15
f 16/57/16 15/58/15 35/59/15 36/60/16
f 17/61/17 16/62/16 36/63/16 37/64/17
f 18/65/18 17/66/17 37/67/17 38/68/18
f 19/69/19 18/70/18 38/71/18 39/72/19
f 20/73/20 19/74/19 39/75/19 40/76/20
f 1/77/21 20/78/20 40/79/20 21/80/21
f 1/81/21 2/82/21 3/83/21 4/84/21 5/85/21 6/86/21 7/87/21 8/88/21 9/89/21 10/90/21 11/91/21 12/92/21 13/93/21 14/94/21 15/95/21 16/96/21 17/97/21 18/98/21 19/99/21 20/100/21
f 40/101/22 39/102/22 38/103/22 37/104/22 36/105/22 35/106/22 34/107/22 33/108/22 32/109/22 31/110/22 30/111/22 29/112/22 28/113/22 27/114/22 26/115/22 25/116/22 24/117/22 23/118/22 22/119/22 21/120/22
#22 polygons


#
# object obj_1232306490
#

v 0 5 2
v 0.6180339887498948 5 1.90211303259030704
v 1.17557050458494628 5 1.61803398874989488
v 1.61803398874989488 5 1.17557050458494606
v 1.90211303259030704 5 0.61803398874989488
v 2 5 1.2246467991473532E-16
v 1.90211303259030704 5 -0.61803398874989512
v 1.61803398874989488 5 -1.17557050458494606
v 1.1755705045849465 5 -1.61803398874989472
v 0.61803398874989504 5 -1.90211303259030704
v 2.4492935982947064E-16 5 -2
v -0.61803398874989544 5 -1.90211303259030704
v -1.17557050458494672 5 -1.61803398874989448
v -1.61803398874989472 5 -1.1755705045849465
v -1.90211303259030704 5 -0.61803398874989512
v -2 5 -3.6739403974420594E-16
v -1.90211303259030736 5 0.61803398874989448
v -1.618033988749894 5 1.17557050458494738
v -1.17557050458494672 5 1.61803398874989472
v -0.6180339887498952 5 1.90211303259030704
v 0 -5 2
v 0.6180339887498948 -5 1.90211303259030704
v 1.17557050458494628 -5 1.61803398874989488
v 1.61803398874989488 -5 1.17557050458494606
v 1.90211303259030704 -5 0.61803398874989488
v 2 -5 1.2246467991473532E-16
v 1.90211303259030704 -5 -0.61803398874989512
v 1.61803398874989488 -5 -1.17557050458494606
v 1.1755705045849465 -5 -1.61803398874989472
v 0.61803398874989504 -5 -1.90211303259030704
v 2.4492935982947064E-16 -5 -2
v -0.61803398874989544 -5 -1.90211303259030704
v -1.17557050458494672 -5 -1.61803398874989448
v -1.61803398874989472 -5 -1.1755705045849465
v -1.90211303259030704 -5 -0.61803398874989512
v -2 -5 -3.6739403974420594E-16
v -1.90211303259030736 -5 0.61803398874989448
v -1.618033988749894 -5 1.17557050458494738
v -1.17557050458494672 -5 1.61803398874989472
v -0.6180339887498952 -5 1.90211303259030704
# 40 vertices

vn 0 0 1
vn 0.30901699437494744 0 0.95105651629515376
vn 0.58778525229247312 0 0.80901699437494752
vn 0.80901699437494768 0 0.58778525229247312
vn 0.95105651629515376 0 0.30901699437494752
vn 1 0 6.123233995736766E-17
vn 0.9510565162951536 0 -0.30901699437494756
vn 0.80901699437494768 0 -0.58778525229247312
vn 0.58778525229247328 0 -0.80901699437494736
vn 0.30901699437494752 0 -0.9510565162951536
vn 1.2246467991473532E-16 0 -1
vn -0.30901699437494772 0 -0.9510565162951536
vn -0.58778525229247336 0 -0.8090169943749472
vn -0.80901699437494736 0 -0.58778525229247328
vn -0.9510565162951536 0 -0.30901699437494756
vn -1 0 -1.8369701987210297E-16
vn -0.9510565162951536 0 0.30901699437494724
vn -0.80901699437494704 0 0.58778525229247368
vn -0.58778525229247336 0 0.80901699437494736
vn -0.3090169943749476 0 0.9510565162951536
vn 0 1 0
vn 0 -1 0
# 22 vertex normals

# 0 texture coords

g obj_1232306490
s 2
f 42/1/24 41/2/23 61/3/23 62/4/24
f 43/5/25 42/6/24 62/7/24 63/8/25
f 44/9/26 43/10/25 63/11/25 64/12/26
f 45/13/27 44/14/26 64/15/26 65/16/27
f 46/17/28 45/18/27 65/19/27 66/20/28
f 47/21/29 46/22/28 66/23/28 67/24/29
f 48/25/30 47/26/29 67/27/29 68/28/30
f 49/29/31 48/30/30 68/31/30 69/32/31
f 50/33/32 49/34/31 69/35/31 70/36/32
f 51/37/33 50/38/32 70/39/32 71/40/33
f 52/41/34 51/42/33 71/43/33 72/44/34
f 53/45/35 52/46/34 72/47/34 73/48/35
f 54/49/36 53/50/35 73/51/35 74/52/36
f 55/53/37 54/54/36 74/55/36 75/56/37
f 56/57/38 55/58/37 75/59/37 76/60/38
f 57/61/39 56/62/38 76/63/38 77/64/39
f 58/65/40 57/66/39 77/67/39 78/68/40
f 59/69/41 58/70/40 78/71/40 79/72/41
f 60/73/42 59/74/41 79/75/41 80/76/42
f 41/77/43 60/78/42 80/79/42 61/80/43
f 41/81/43 42/82/43 43/83/43 44/84/43 45/85/43 46/86/43 47/87/43 48/88/43 49/89/43 50/90/43 51/91/43 52/92/43 53/93/43 54/94/43 55/95/43 56/96/43 57/97/43 58/98/43 59/99/43 60/100/43
f 80/101/44 79/102/44 78/103/44 77/104/44 76/105/44 75/106/44 74/107/44 73/108/44 72/109/44 71/110/44 70/111/44 69/112/44 68/113/44 67/114/44 66/115/44 65/116/44 64/117/44 63/118/44 62/119/44 61/120/44
#22 polygons

