{"extensionsUsed" : ["KHR_materials_common"], "meshes" : {"mesh" : {"primitives" : [{"indices" : "accessor_1", "mode" : 4, "attributes" : {"POSITION" : "accessor_2", "TEXCOORD_0" : "accessor_4", "NORMAL" : "accessor_3"}}]}}, "animations" : {}, "textures" : {}, "scenes" : {"defaultScene" : {"nodes" : ["sphere"]}}, "skins" : {}, "samplers" : {}, "accessors" : {"accessor_2" : {"min" : [-1.0, -1.0, -1.0], "byteStride" : 12, "count" : 115, "max" : [1.0, 1.0, 1.0], "componentType" : 5126, "byteOffset" : 0, "type" : "VEC3", "bufferView" : "vertexBufferView"}, "accessor_3" : {"min" : [-1.0, -1.0, -1.0], "byteStride" : 12, "count" : 115, "max" : [1.0, 1.0, 1.0], "componentType" : 5126, "byteOffset" : 1380, "type" : "VEC3", "bufferView" : "vertexBufferView"}, "accessor_1" : {"min" : [0.0], "byteStride" : 0, "count" : 504, "max" : [114.0], "componentType" : 5123, "byteOffset" : 0, "type" : "SCALAR", "bufferView" : "indexBufferView"}, "accessor_4" : {"min" : [0.0, -1.0], "byteStride" : 8, "count" : 115, "max" : [1.0, -0.0], "componentType" : 5126, "byteOffset" : 2760, "type" : "VEC2", "bufferView" : "vertexBufferView"}}, "cameras" : {}, "images" : {}, "programs" : {}, "buffers" : {"buffer" : {"type" : "arraybuffer", "uri" : "data:application/octet-stream;base64,", "byteLength" : 4688}}, "techniques" : {}, "shaders" : {}, "nodes" : {"sphere" : {"skeletons" : [], "meshes" : ["mesh"], "children" : [], "matrix" : [1.0, 0.0, 0.0, 0.0, 0.0, 1.0, 0.0, 0.0, 0.0, 0.0, 1.0, 0.0, 0.0, 0.0, 0.0, 1.0]}}, "asset" : {"generator" : "Aspose.3D", "premultipliedAlpha" : false, "version" : "1.0.1"}, "materials" : {}, "scene" : "defaultScene", "bufferViews" : {"indexBufferView" : {"buffer" : "buffer", "target" : 34963, "byteLength" : 1008, "byteOffset" : 0}, "vertexBufferView" : {"buffer" : "buffer", "target" : 34962, "byteLength" : 3680, "byteOffset" : 1008}}, "extensions" : {"KHR_materials_common" : {"lights" : {}}}}