{"accessors" : [{"bufferView" : 0, "byteOffset" : 0, "componentType" : 5123, "normalized" : false, "count" : 36, "type" : "SCALAR", "max" : [23.0], "min" : [0.0]}, {"bufferView" : 1, "byteOffset" : 0, "componentType" : 5126, "normalized" : false, "count" : 24, "type" : "VEC3", "max" : [0.5, 0.5, 0.5], "min" : [-0.5, -0.5, -0.5]}, {"bufferView" : 1, "byteOffset" : 288, "componentType" : 5126, "normalized" : false, "count" : 24, "type" : "VEC3", "max" : [1.0, 1.0, 1.0], "min" : [-1.0, -1.0, -1.0]}, {"bufferView" : 1, "byteOffset" : 576, "componentType" : 5126, "normalized" : false, "count" : 24, "type" : "VEC2", "max" : [1.0, -0.0], "min" : [0.0, -1.0]}], "asset" : {"generator" : "Aspose.3D", "version" : "2.0"}, "buffers" : [{"uri" : "buffer.bin", "byteLength" : 840}], "bufferViews" : [{"buffer" : 0, "byteOffset" : 0, "byteLength" : 72, "byteStride" : 0, "target" : 34963}, {"buffer" : 0, "byteOffset" : 72, "byteLength" : 768, "byteStride" : 0, "target" : 34962}], "materials" : [{"pbrMetallicRoughness" : {"baseColorFactor" : [1.0, 0.0, 1.0, 1.0], "metallicFactor" : 0.0, "roughnessFactor" : 0.0}, "emissiveFactor" : [0.0, 0.0, 0.0], "alphaMode" : "OPAQUE", "alphaCutoff" : 0.5, "doubleSided" : false}], "meshes" : [{"primitives" : [{"attributes" : {"POSITION" : 1, "TEXCOORD_0" : 3, "NORMAL" : 2}, "indices" : 0, "material" : 0, "mode" : 4}]}], "nodes" : [{"matrix" : [1.0, 0.0, 0.0, 0.0, 0.0, 1.0, 0.0, 0.0, 0.0, 0.0, 1.0, 0.0, 0.0, 0.0, 0.0, 1.0], "mesh" : 0, "name" : "box1"}], "scene" : 0, "scenes" : [{"nodes" : [0]}]}