# Aspose.3D Wavefront OBJ Exporter
# Copyright 2004-2018 Aspose Pty Ltd.
# File created: java.util.GregorianCalendar[time=1520823543684,areFieldsSet=true,areAllFieldsSet=true,lenient=true,zone=sun.util.calendar.ZoneInfo[id="GMT",offset=0,dstSavings=0,useDaylight=false,transitions=0,lastRule=null],firstDayOfWeek=1,minimalDaysInFirstWeek=1,ERA=1,YEAR=2018,MONTH=2,WEEK_OF_YEAR=11,WEEK_OF_MONTH=3,DAY_OF_MONTH=12,DAY_OF_YEAR=71,DAY_OF_WEEK=2,DAY_OF_WEEK_IN_MONTH=2,AM_PM=0,HOUR=2,HOUR_OF_DAY=2,MINUTE=59,SECOND=3,MILLISECOND=684,ZONE_OFFSET=0,DST_OFFSET=0]

mtllib mnt/d/Projects/aspose.3d.java/src/samples/Data/SavingDependenciesInMemoryFileSystem_out.mtl

#
# object sphere
#

v 0.0 1 0.0
v 0.0 1 0.0
v 0.0 1 0.0
v 0.0 1 0.0
v 0.0 1 0.0
v 0.0 1 0.0
v 0.0 1 0.0
v 0.0 1 0.0
v 0.0 1 0.0
v 0.0 1 0.0
v 0.0 1 0.0
v 0.0 1 0.0
v 0.0 1 0.0
v -0.38268343236508976 0.92387953251128672 0.0
v -0.33141357403559180 0.92387953251128672 0.19134171618254488
v -0.19134171618254496 0.92387953251128672 0.33141357403559180
v -2.3432602026631493E-17 0.92387953251128672 0.38268343236508976
v 0.19134171618254480 0.92387953251128672 0.33141357403559180
v 0.33141357403559180 0.92387953251128672 0.19134171618254488
v 0.38268343236508976 0.92387953251128672 4.6865204053262986E-17
v 0.33141357403559180 0.92387953251128672 -0.19134171618254496
v 0.19134171618254504 0.92387953251128672 -0.33141357403559176
v 7.029780607989448E-17 0.92387953251128672 -0.38268343236508976
v -0.19134171618254496 0.92387953251128672 -0.33141357403559180
v -0.33141357403559168 0.92387953251128672 -0.19134171618254504
v -0.38268343236508976 0.92387953251128672 -9.373040810652597E-17
v -0.70710678118654744 0.70710678118654760 0.0
v -0.61237243569579448 0.70710678118654760 0.35355339059327368
v -0.35355339059327380 0.70710678118654760 0.61237243569579448
v -4.329780281177466E-17 0.70710678118654760 0.70710678118654744
v 0.35355339059327356 0.70710678118654760 0.61237243569579448
v 0.61237243569579448 0.70710678118654760 0.35355339059327368
v 0.70710678118654744 0.70710678118654760 8.659560562354932E-17
v 0.61237243569579448 0.70710678118654760 -0.35355339059327380
v 0.35355339059327408 0.70710678118654760 -0.61237243569579432
v 1.2989340843532398E-16 0.70710678118654760 -0.70710678118654744
v -0.35355339059327380 0.70710678118654760 -0.61237243569579448
v -0.61237243569579424 0.70710678118654760 -0.35355339059327408
v -0.70710678118654744 0.70710678118654760 -1.7319121124709863E-16
v -0.92387953251128672 0.38268343236508984 0.0
v -0.80010314519126560 0.38268343236508984 0.46193976625564328
v -0.46193976625564352 0.38268343236508984 0.80010314519126544
v -5.657130561438501E-17 0.38268343236508984 0.92387953251128672
v 0.46193976625564312 0.38268343236508984 0.80010314519126560
v 0.80010314519126560 0.38268343236508984 0.46193976625564328
v 0.92387953251128672 0.38268343236508984 1.1314261122877003E-16
v 0.80010314519126544 0.38268343236508984 -0.46193976625564352
v 0.46193976625564376 0.38268343236508984 -0.80010314519126528
v 1.6971391684315505E-16 0.38268343236508984 -0.92387953251128672
v -0.46193976625564352 0.38268343236508984 -0.80010314519126544
v -0.80010314519126528 0.38268343236508984 -0.46193976625564376
v -0.92387953251128672 0.38268343236508984 -2.2628522245754005E-16
v -1 6.123233995736766E-17 0.0
v -0.86602540378443872 6.123233995736766E-17 0.49999999999999992
v -0.50000000000000008 6.123233995736766E-17 0.86602540378443856
v -6.123233995736766E-17 6.123233995736766E-17 1
v 0.49999999999999976 6.123233995736766E-17 0.86602540378443872
v 0.86602540378443872 6.123233995736766E-17 0.49999999999999992
v 1 6.123233995736766E-17 1.2246467991473532E-16
v 0.86602540378443856 6.123233995736766E-17 -0.50000000000000008
v 0.50000000000000048 6.123233995736766E-17 -0.86602540378443856
v 1.8369701987210297E-16 6.123233995736766E-17 -1
v -0.50000000000000008 6.123233995736766E-17 -0.86602540378443856
v -0.86602540378443840 6.123233995736766E-17 -0.50000000000000048
v -1 6.123233995736766E-17 -2.4492935982947064E-16
v -0.92387953251128672 -0.38268343236508976 0.0
v -0.80010314519126560 -0.38268343236508976 0.46193976625564328
v -0.46193976625564352 -0.38268343236508976 0.80010314519126544
v -5.657130561438501E-17 -0.38268343236508976 0.92387953251128672
v 0.46193976625564312 -0.38268343236508976 0.80010314519126560
v 0.80010314519126560 -0.38268343236508976 0.46193976625564328
v 0.92387953251128672 -0.38268343236508976 1.1314261122877003E-16
v 0.80010314519126544 -0.38268343236508976 -0.46193976625564352
v 0.46193976625564376 -0.38268343236508976 -0.80010314519126528
v 1.6971391684315505E-16 -0.38268343236508976 -0.92387953251128672
v -0.46193976625564352 -0.38268343236508976 -0.80010314519126544
v -0.80010314519126528 -0.38268343236508976 -0.46193976625564376
v -0.92387953251128672 -0.38268343236508976 -2.2628522245754005E-16
v -0.70710678118654760 -0.70710678118654744 0.0
v -0.61237243569579456 -0.70710678118654744 0.35355339059327372
v -0.35355339059327384 -0.70710678118654744 0.61237243569579456
v -4.329780281177467E-17 -0.70710678118654744 0.70710678118654760
v 0.35355339059327360 -0.70710678118654744 0.61237243569579456
v 0.61237243569579456 -0.70710678118654744 0.35355339059327372
v 0.70710678118654760 -0.70710678118654744 8.659560562354934E-17
v 0.61237243569579456 -0.70710678118654744 -0.35355339059327384
v 0.35355339059327412 -0.70710678118654744 -0.61237243569579448
v 1.29893408435324E-16 -0.70710678118654744 -0.70710678118654760
v -0.35355339059327384 -0.70710678118654744 -0.61237243569579456
v -0.61237243569579432 -0.70710678118654744 -0.35355339059327412
v -0.70710678118654760 -0.70710678118654744 -1.7319121124709868E-16
v -0.38268343236508992 -0.92387953251128672 0.0
v -0.33141357403559192 -0.92387953251128672 0.19134171618254492
v -0.19134171618254500 -0.92387953251128672 0.33141357403559184
v -2.34326020266315E-17 -0.92387953251128672 0.38268343236508992
v 0.19134171618254488 -0.92387953251128672 0.33141357403559192
v 0.33141357403559192 -0.92387953251128672 0.19134171618254492
v 0.38268343236508992 -0.92387953251128672 4.6865204053263E-17
v 0.33141357403559184 -0.92387953251128672 -0.19134171618254500
v 0.19134171618254512 -0.92387953251128672 -0.33141357403559184
v 7.029780607989449E-17 -0.92387953251128672 -0.38268343236508992
v -0.19134171618254500 -0.92387953251128672 -0.33141357403559184
v -0.33141357403559180 -0.92387953251128672 -0.19134171618254512
v -0.38268343236508992 -0.92387953251128672 -9.3730408106526E-17
v -1.2246467991473532E-16 -1 0.0
v -1.0605752387249069E-16 -1 6.123233995736765E-17
v -6.123233995736767E-17 -1 1.0605752387249068E-16
v -7.498798913309288E-33 -1 1.2246467991473532E-16
v 6.123233995736764E-17 -1 1.0605752387249069E-16
v 1.0605752387249069E-16 -1 6.123233995736765E-17
v 1.2246467991473532E-16 -1 1.4997597826618576E-32
v 1.0605752387249068E-16 -1 -6.123233995736767E-17
v 6.123233995736771E-17 -1 -1.0605752387249067E-16
v 2.2496396739927864E-32 -1 -1.2246467991473532E-16
v -6.123233995736767E-17 -1 -1.0605752387249068E-16
v -1.0605752387249065E-16 -1 -6.123233995736771E-17
v -1.2246467991473532E-16 -1 -2.999519565323715E-32
# 117 vertices

vn 0.0 1 0.0
vn 0.0 1 0.0
vn 0.0 1 0.0
vn 0.0 1 0.0
vn 0.0 1 0.0
vn 0.0 1 0.0
vn 0.0 1 0.0
vn 0.0 1 0.0
vn 0.0 1 0.0
vn 0.0 1 0.0
vn 0.0 1 0.0
vn 0.0 1 0.0
vn 0.0 1 0.0
vn -0.38268343236508976 0.92387953251128672 0.0
vn -0.33141357403559184 0.92387953251128704 0.19134171618254492
vn -0.19134171618254496 0.92387953251128672 0.33141357403559180
vn -2.3432602026631493E-17 0.92387953251128672 0.38268343236508976
vn 0.19134171618254488 0.92387953251128704 0.33141357403559184
vn 0.33141357403559184 0.92387953251128704 0.19134171618254492
vn 0.38268343236508976 0.92387953251128672 4.6865204053262986E-17
vn 0.33141357403559180 0.92387953251128672 -0.19134171618254496
vn 0.19134171618254504 0.92387953251128672 -0.33141357403559176
vn 7.029780607989448E-17 0.92387953251128672 -0.38268343236508976
vn -0.19134171618254496 0.92387953251128672 -0.33141357403559180
vn -0.33141357403559168 0.92387953251128672 -0.19134171618254504
vn -0.38268343236508976 0.92387953251128672 -9.373040810652597E-17
vn -0.70710678118654744 0.70710678118654760 0.0
vn -0.61237243569579448 0.70710678118654760 0.35355339059327368
vn -0.35355339059327380 0.70710678118654760 0.61237243569579448
vn -4.329780281177466E-17 0.70710678118654760 0.70710678118654744
vn 0.35355339059327356 0.70710678118654760 0.61237243569579448
vn 0.61237243569579448 0.70710678118654760 0.35355339059327368
vn 0.70710678118654744 0.70710678118654760 8.659560562354932E-17
vn 0.61237243569579448 0.70710678118654760 -0.35355339059327380
vn 0.35355339059327408 0.70710678118654760 -0.61237243569579432
vn 1.2989340843532398E-16 0.70710678118654760 -0.70710678118654744
vn -0.35355339059327380 0.70710678118654760 -0.61237243569579448
vn -0.61237243569579424 0.70710678118654760 -0.35355339059327408
vn -0.70710678118654744 0.70710678118654760 -1.7319121124709863E-16
vn -0.92387953251128672 0.38268343236508984 0.0
vn -0.80010314519126560 0.38268343236508984 0.46193976625564328
vn -0.46193976625564352 0.38268343236508984 0.80010314519126544
vn -5.657130561438501E-17 0.38268343236508984 0.92387953251128672
vn 0.46193976625564328 0.38268343236508992 0.80010314519126576
vn 0.80010314519126560 0.38268343236508984 0.46193976625564328
vn 0.92387953251128672 0.38268343236508984 1.1314261122877003E-16
vn 0.80010314519126544 0.38268343236508984 -0.46193976625564352
vn 0.46193976625564376 0.38268343236508984 -0.80010314519126528
vn 1.6971391684315505E-16 0.38268343236508984 -0.92387953251128672
vn -0.46193976625564352 0.38268343236508984 -0.80010314519126544
vn -0.80010314519126528 0.38268343236508984 -0.46193976625564376
vn -0.92387953251128672 0.38268343236508984 -2.2628522245754005E-16
vn -1 6.123233995736766E-17 0.0
vn -0.86602540378443872 6.123233995736766E-17 0.49999999999999992
vn -0.50000000000000008 6.123233995736766E-17 0.86602540378443856
vn -6.123233995736766E-17 6.123233995736766E-17 1
vn 0.49999999999999992 6.123233995736767E-17 0.86602540378443888
vn 0.86602540378443872 6.123233995736766E-17 0.49999999999999992
vn 1 6.123233995736766E-17 1.2246467991473532E-16
vn 0.86602540378443856 6.123233995736766E-17 -0.50000000000000008
vn 0.50000000000000048 6.123233995736766E-17 -0.86602540378443856
vn 1.8369701987210297E-16 6.123233995736766E-17 -1
vn -0.50000000000000008 6.123233995736766E-17 -0.86602540378443856
vn -0.86602540378443840 6.123233995736766E-17 -0.50000000000000048
vn -1 6.123233995736766E-17 -2.4492935982947064E-16
vn -0.92387953251128672 -0.38268343236508976 0.0
vn -0.80010314519126576 -0.38268343236508984 0.46193976625564344
vn -0.46193976625564352 -0.38268343236508976 0.80010314519126544
vn -5.657130561438501E-17 -0.38268343236508976 0.92387953251128672
vn 0.46193976625564328 -0.38268343236508984 0.80010314519126576
vn 0.80010314519126576 -0.38268343236508984 0.46193976625564344
vn 0.92387953251128672 -0.38268343236508976 1.1314261122877003E-16
vn 0.80010314519126544 -0.38268343236508976 -0.46193976625564352
vn 0.46193976625564376 -0.38268343236508976 -0.80010314519126528
vn 1.6971391684315505E-16 -0.38268343236508976 -0.92387953251128672
vn -0.46193976625564352 -0.38268343236508976 -0.80010314519126544
vn -0.80010314519126544 -0.38268343236508984 -0.46193976625564384
vn -0.92387953251128672 -0.38268343236508976 -2.2628522245754005E-16
vn -0.70710678118654760 -0.70710678118654744 0.0
vn -0.61237243569579456 -0.70710678118654744 0.35355339059327372
vn -0.35355339059327384 -0.70710678118654744 0.61237243569579456
vn -4.329780281177467E-17 -0.70710678118654744 0.70710678118654760
vn 0.35355339059327368 -0.70710678118654760 0.61237243569579472
vn 0.61237243569579456 -0.70710678118654744 0.35355339059327372
vn 0.70710678118654760 -0.70710678118654744 8.659560562354934E-17
vn 0.61237243569579456 -0.70710678118654744 -0.35355339059327384
vn 0.35355339059327412 -0.70710678118654744 -0.61237243569579448
vn 1.29893408435324E-16 -0.70710678118654744 -0.70710678118654760
vn -0.35355339059327384 -0.70710678118654744 -0.61237243569579456
vn -0.61237243569579448 -0.70710678118654760 -0.35355339059327416
vn -0.70710678118654760 -0.70710678118654744 -1.7319121124709868E-16
vn -0.38268343236508992 -0.92387953251128672 0.0
vn -0.33141357403559192 -0.92387953251128672 0.19134171618254492
vn -0.19134171618254500 -0.92387953251128672 0.33141357403559184
vn -2.34326020266315E-17 -0.92387953251128672 0.38268343236508992
vn 0.19134171618254488 -0.92387953251128672 0.33141357403559192
vn 0.33141357403559192 -0.92387953251128672 0.19134171618254492
vn 0.38268343236508992 -0.92387953251128672 4.6865204053263E-17
vn 0.33141357403559184 -0.92387953251128672 -0.19134171618254500
vn 0.19134171618254512 -0.92387953251128672 -0.33141357403559184
vn 7.029780607989449E-17 -0.92387953251128672 -0.38268343236508992
vn -0.19134171618254500 -0.92387953251128672 -0.33141357403559184
vn -0.33141357403559180 -0.92387953251128672 -0.19134171618254512
vn -0.38268343236508992 -0.92387953251128672 -9.3730408106526E-17
vn -1.2246467991473532E-16 -1 0.0
vn -1.0605752387249069E-16 -1 6.123233995736765E-17
vn -6.123233995736767E-17 -1 1.0605752387249068E-16
vn -7.498798913309288E-33 -1 1.2246467991473532E-16
vn 6.123233995736764E-17 -1 1.0605752387249069E-16
vn 1.0605752387249069E-16 -1 6.123233995736765E-17
vn 1.2246467991473532E-16 -1 1.4997597826618576E-32
vn 1.0605752387249068E-16 -1 -6.123233995736767E-17
vn 6.123233995736771E-17 -1 -1.0605752387249067E-16
vn 2.2496396739927864E-32 -1 -1.2246467991473532E-16
vn -6.123233995736767E-17 -1 -1.0605752387249068E-16
vn -1.0605752387249065E-16 -1 -6.123233995736771E-17
vn -1.2246467991473532E-16 -1 -2.999519565323715E-32
# 117 vertex normals

vt 0.0 1 0.0
vt 0.08333333333333333 1 0.0
vt 0.16666666666666666 1 0.0
vt 0.25000000000000000 1 0.0
vt 0.33333333333333332 1 0.0
vt 0.41666666666666672 1 0.0
vt 0.50000000000000000 1 0.0
vt 0.58333333333333336 1 0.0
vt 0.66666666666666664 1 0.0
vt 0.75000000000000000 1 0.0
vt 0.83333333333333344 1 0.0
vt 0.91666666666666656 1 0.0
vt 1 1 0.0
vt 0.0 0.87500000000000000 0.0
vt 0.08333333333333333 0.87500000000000000 0.0
vt 0.16666666666666666 0.87500000000000000 0.0
vt 0.25000000000000000 0.87500000000000000 0.0
vt 0.33333333333333332 0.87500000000000000 0.0
vt 0.41666666666666672 0.87500000000000000 0.0
vt 0.50000000000000000 0.87500000000000000 0.0
vt 0.58333333333333336 0.87500000000000000 0.0
vt 0.66666666666666664 0.87500000000000000 0.0
vt 0.75000000000000000 0.87500000000000000 0.0
vt 0.83333333333333344 0.87500000000000000 0.0
vt 0.91666666666666656 0.87500000000000000 0.0
vt 1 0.87500000000000000 0.0
vt 0.0 0.75000000000000000 0.0
vt 0.08333333333333333 0.75000000000000000 0.0
vt 0.16666666666666666 0.75000000000000000 0.0
vt 0.25000000000000000 0.75000000000000000 0.0
vt 0.33333333333333332 0.75000000000000000 0.0
vt 0.41666666666666672 0.75000000000000000 0.0
vt 0.50000000000000000 0.75000000000000000 0.0
vt 0.58333333333333336 0.75000000000000000 0.0
vt 0.66666666666666664 0.75000000000000000 0.0
vt 0.75000000000000000 0.75000000000000000 0.0
vt 0.83333333333333344 0.75000000000000000 0.0
vt 0.91666666666666656 0.75000000000000000 0.0
vt 1 0.75000000000000000 0.0
vt 0.0 0.62500000000000000 0.0
vt 0.08333333333333333 0.62500000000000000 0.0
vt 0.16666666666666666 0.62500000000000000 0.0
vt 0.25000000000000000 0.62500000000000000 0.0
vt 0.33333333333333332 0.62500000000000000 0.0
vt 0.41666666666666672 0.62500000000000000 0.0
vt 0.50000000000000000 0.62500000000000000 0.0
vt 0.58333333333333336 0.62500000000000000 0.0
vt 0.66666666666666664 0.62500000000000000 0.0
vt 0.75000000000000000 0.62500000000000000 0.0
vt 0.83333333333333344 0.62500000000000000 0.0
vt 0.91666666666666656 0.62500000000000000 0.0
vt 1 0.62500000000000000 0.0
vt 0.0 0.50000000000000000 0.0
vt 0.08333333333333333 0.50000000000000000 0.0
vt 0.16666666666666666 0.50000000000000000 0.0
vt 0.25000000000000000 0.50000000000000000 0.0
vt 0.33333333333333332 0.50000000000000000 0.0
vt 0.41666666666666672 0.50000000000000000 0.0
vt 0.50000000000000000 0.50000000000000000 0.0
vt 0.58333333333333336 0.50000000000000000 0.0
vt 0.66666666666666664 0.50000000000000000 0.0
vt 0.75000000000000000 0.50000000000000000 0.0
vt 0.83333333333333344 0.50000000000000000 0.0
vt 0.91666666666666656 0.50000000000000000 0.0
vt 1 0.50000000000000000 0.0
vt 0.0 0.37500000000000000 0.0
vt 0.08333333333333333 0.37500000000000000 0.0
vt 0.16666666666666666 0.37500000000000000 0.0
vt 0.25000000000000000 0.37500000000000000 0.0
vt 0.33333333333333332 0.37500000000000000 0.0
vt 0.41666666666666672 0.37500000000000000 0.0
vt 0.50000000000000000 0.37500000000000000 0.0
vt 0.58333333333333336 0.37500000000000000 0.0
vt 0.66666666666666664 0.37500000000000000 0.0
vt 0.75000000000000000 0.37500000000000000 0.0
vt 0.83333333333333344 0.37500000000000000 0.0
vt 0.91666666666666656 0.37500000000000000 0.0
vt 1 0.37500000000000000 0.0
vt 0.0 0.25000000000000000 0.0
vt 0.08333333333333333 0.25000000000000000 0.0
vt 0.16666666666666666 0.25000000000000000 0.0
vt 0.25000000000000000 0.25000000000000000 0.0
vt 0.33333333333333332 0.25000000000000000 0.0
vt 0.41666666666666672 0.25000000000000000 0.0
vt 0.50000000000000000 0.25000000000000000 0.0
vt 0.58333333333333336 0.25000000000000000 0.0
vt 0.66666666666666664 0.25000000000000000 0.0
vt 0.75000000000000000 0.25000000000000000 0.0
vt 0.83333333333333344 0.25000000000000000 0.0
vt 0.91666666666666656 0.25000000000000000 0.0
vt 1 0.25000000000000000 0.0
vt 0.0 0.12500000000000000 0.0
vt 0.08333333333333333 0.12500000000000000 0.0
vt 0.16666666666666666 0.12500000000000000 0.0
vt 0.25000000000000000 0.12500000000000000 0.0
vt 0.33333333333333332 0.12500000000000000 0.0
vt 0.41666666666666672 0.12500000000000000 0.0
vt 0.50000000000000000 0.12500000000000000 0.0
vt 0.58333333333333336 0.12500000000000000 0.0
vt 0.66666666666666664 0.12500000000000000 0.0
vt 0.75000000000000000 0.12500000000000000 0.0
vt 0.83333333333333344 0.12500000000000000 0.0
vt 0.91666666666666656 0.12500000000000000 0.0
vt 1 0.12500000000000000 0.0
vt 0.0 0.0 0.0
vt 0.08333333333333333 0.0 0.0
vt 0.16666666666666666 0.0 0.0
vt 0.25000000000000000 0.0 0.0
vt 0.33333333333333332 0.0 0.0
vt 0.41666666666666672 0.0 0.0
vt 0.50000000000000000 0.0 0.0
vt 0.58333333333333336 0.0 0.0
vt 0.66666666666666664 0.0 0.0
vt 0.75000000000000000 0.0 0.0
vt 0.83333333333333344 0.0 0.0
vt 0.91666666666666656 0.0 0.0
vt 1 0.0 0.0
# 117 texture coords

g sphere
usemtl mat_957140874
s 1
f 1/1/1 14/14/14 15/15/15
f 2/2/2 15/15/15 16/16/16
f 3/3/3 16/16/16 17/17/17
f 4/4/4 17/17/17 18/18/18
f 5/5/5 18/18/18 19/19/19
f 6/6/6 19/19/19 20/20/20
f 7/7/7 20/20/20 21/21/21
f 8/8/8 21/21/21 22/22/22
f 9/9/9 22/22/22 23/23/23
f 10/10/10 23/23/23 24/24/24
f 11/11/11 24/24/24 25/25/25
f 12/12/12 25/25/25 26/26/26
f 15/15/15 14/14/14 27/27/27 28/28/28
f 16/16/16 15/15/15 28/28/28 29/29/29
f 17/17/17 16/16/16 29/29/29 30/30/30
f 18/18/18 17/17/17 30/30/30 31/31/31
f 19/19/19 18/18/18 31/31/31 32/32/32
f 20/20/20 19/19/19 32/32/32 33/33/33
f 21/21/21 20/20/20 33/33/33 34/34/34
f 22/22/22 21/21/21 34/34/34 35/35/35
f 23/23/23 22/22/22 35/35/35 36/36/36
f 24/24/24 23/23/23 36/36/36 37/37/37
f 25/25/25 24/24/24 37/37/37 38/38/38
f 26/26/26 25/25/25 38/38/38 39/39/39
f 28/28/28 27/27/27 40/40/40 41/41/41
f 29/29/29 28/28/28 41/41/41 42/42/42
f 30/30/30 29/29/29 42/42/42 43/43/43
f 31/31/31 30/30/30 43/43/43 44/44/44
f 32/32/32 31/31/31 44/44/44 45/45/45
f 33/33/33 32/32/32 45/45/45 46/46/46
f 34/34/34 33/33/33 46/46/46 47/47/47
f 35/35/35 34/34/34 47/47/47 48/48/48
f 36/36/36 35/35/35 48/48/48 49/49/49
f 37/37/37 36/36/36 49/49/49 50/50/50
f 38/38/38 37/37/37 50/50/50 51/51/51
f 39/39/39 38/38/38 51/51/51 52/52/52
f 41/41/41 40/40/40 53/53/53 54/54/54
f 42/42/42 41/41/41 54/54/54 55/55/55
f 43/43/43 42/42/42 55/55/55 56/56/56
f 44/44/44 43/43/43 56/56/56 57/57/57
f 45/45/45 44/44/44 57/57/57 58/58/58
f 46/46/46 45/45/45 58/58/58 59/59/59
f 47/47/47 46/46/46 59/59/59 60/60/60
f 48/48/48 47/47/47 60/60/60 61/61/61
f 49/49/49 48/48/48 61/61/61 62/62/62
f 50/50/50 49/49/49 62/62/62 63/63/63
f 51/51/51 50/50/50 63/63/63 64/64/64
f 52/52/52 51/51/51 64/64/64 65/65/65
f 54/54/54 53/53/53 66/66/66 67/67/67
f 55/55/55 54/54/54 67/67/67 68/68/68
f 56/56/56 55/55/55 68/68/68 69/69/69
f 57/57/57 56/56/56 69/69/69 70/70/70
f 58/58/58 57/57/57 70/70/70 71/71/71
f 59/59/59 58/58/58 71/71/71 72/72/72
f 60/60/60 59/59/59 72/72/72 73/73/73
f 61/61/61 60/60/60 73/73/73 74/74/74
f 62/62/62 61/61/61 74/74/74 75/75/75
f 63/63/63 62/62/62 75/75/75 76/76/76
f 64/64/64 63/63/63 76/76/76 77/77/77
f 65/65/65 64/64/64 77/77/77 78/78/78
f 67/67/67 66/66/66 79/79/79 80/80/80
f 68/68/68 67/67/67 80/80/80 81/81/81
f 69/69/69 68/68/68 81/81/81 82/82/82
f 70/70/70 69/69/69 82/82/82 83/83/83
f 71/71/71 70/70/70 83/83/83 84/84/84
f 72/72/72 71/71/71 84/84/84 85/85/85
f 73/73/73 72/72/72 85/85/85 86/86/86
f 74/74/74 73/73/73 86/86/86 87/87/87
f 75/75/75 74/74/74 87/87/87 88/88/88
f 76/76/76 75/75/75 88/88/88 89/89/89
f 77/77/77 76/76/76 89/89/89 90/90/90
f 78/78/78 77/77/77 90/90/90 91/91/91
f 80/80/80 79/79/79 92/92/92 93/93/93
f 81/81/81 80/80/80 93/93/93 94/94/94
f 82/82/82 81/81/81 94/94/94 95/95/95
f 83/83/83 82/82/82 95/95/95 96/96/96
f 84/84/84 83/83/83 96/96/96 97/97/97
f 85/85/85 84/84/84 97/97/97 98/98/98
f 86/86/86 85/85/85 98/98/98 99/99/99
f 87/87/87 86/86/86 99/99/99 100/100/100
f 88/88/88 87/87/87 100/100/100 101/101/101
f 89/89/89 88/88/88 101/101/101 102/102/102
f 90/90/90 89/89/89 102/102/102 103/103/103
f 91/91/91 90/90/90 103/103/103 104/104/104
f 93/93/93 92/92/92 106/106/106
f 94/94/94 93/93/93 107/107/107
f 95/95/95 94/94/94 108/108/108
f 96/96/96 95/95/95 109/109/109
f 97/97/97 96/96/96 110/110/110
f 98/98/98 97/97/97 111/111/111
f 99/99/99 98/98/98 112/112/112
f 100/100/100 99/99/99 113/113/113
f 101/101/101 100/100/100 114/114/114
f 102/102/102 101/101/101 115/115/115
f 103/103/103 102/102/102 116/116/116
f 104/104/104 103/103/103 117/117/117
#96 polygons

