ply
format ascii 1.0
comment Exported by Aspose.3D 19.7
element vertex 117
property float x
property float y
property float z
property float nx
property float ny
property float nz
property float u
property float v
element face 96
property list uchar int vertex_index
end_header
0.000000 0.000000 1.000000 0.000000 0.000000 1.000000 0.000000 0.000000
0.000000 0.000000 1.000000 0.000000 0.000000 1.000000 0.000000 0.000000
0.000000 0.000000 1.000000 0.000000 0.000000 1.000000 0.000000 0.000000
0.000000 0.000000 1.000000 0.000000 0.000000 1.000000 0.000000 0.000000
0.000000 0.000000 1.000000 0.000000 0.000000 1.000000 0.000000 0.000000
0.000000 0.000000 1.000000 0.000000 0.000000 1.000000 0.000000 0.000000
0.000000 0.000000 1.000000 0.000000 0.000000 1.000000 0.000000 0.000000
0.000000 0.000000 1.000000 0.000000 0.000000 1.000000 0.000000 0.000000
0.000000 0.000000 1.000000 0.000000 0.000000 1.000000 0.000000 0.000000
0.000000 0.000000 1.000000 0.000000 0.000000 1.000000 0.000000 0.000000
0.000000 0.000000 1.000000 0.000000 0.000000 1.000000 0.000000 0.000000
0.000000 0.000000 1.000000 0.000000 0.000000 1.000000 0.000000 0.000000
0.000000 0.000000 1.000000 0.000000 0.000000 0.000000 0.000000 0.000000
0.382683 0.000000 0.923880 0.382683 0.000000 0.923880 0.382683 0.000000
0.331414 0.191342 0.923880 0.331414 0.191342 0.923880 0.331414 0.191342
0.191342 0.331414 0.923880 0.191342 0.331414 0.923880 0.191342 0.331414
0.000000 0.382683 0.923880 0.000000 0.382683 0.923880 0.000000 0.382683
-0.191342 0.331414 0.923880 -0.191342 0.331414 0.923880 -0.191342 0.331414
-0.331414 0.191342 0.923880 -0.331414 0.191342 0.923880 -0.331414 0.191342
-0.382683 0.000000 0.923880 -0.382683 0.000000 0.923880 -0.382683 0.000000
-0.331414 -0.191342 0.923880 -0.331414 -0.191342 0.923880 -0.331414 -0.191342
-0.191342 -0.331414 0.923880 -0.191342 -0.331414 0.923880 -0.191342 -0.331414
-0.000000 -0.382683 0.923880 -0.000000 -0.382683 0.923880 -0.000000 -0.382683
0.191342 -0.331414 0.923880 0.191342 -0.331414 0.923880 0.191342 -0.331414
0.331414 -0.191342 0.923880 0.331414 -0.191342 0.923880 0.331414 -0.191342
0.382683 -0.000000 0.923880 0.382683 -0.000000 0.923880 0.382683 -0.000000
0.707107 0.000000 0.707107 0.707107 0.000000 0.707107 0.707107 0.000000
0.612372 0.353553 0.707107 0.612372 0.353553 0.707107 0.612372 0.353553
0.353553 0.612372 0.707107 0.353553 0.612372 0.707107 0.353553 0.612372
0.000000 0.707107 0.707107 0.000000 0.707107 0.707107 0.000000 0.707107
-0.353553 0.612372 0.707107 -0.353553 0.612372 0.707107 -0.353553 0.612372
-0.612372 0.353553 0.707107 -0.612372 0.353553 0.707107 -0.612372 0.353553
-0.707107 0.000000 0.707107 -0.707107 0.000000 0.707107 -0.707107 0.000000
-0.612372 -0.353553 0.707107 -0.612372 -0.353553 0.707107 -0.612372 -0.353553
-0.353553 -0.612372 0.707107 -0.353553 -0.612372 0.707107 -0.353553 -0.612372
-0.000000 -0.707107 0.707107 -0.000000 -0.707107 0.707107 -0.000000 -0.707107
0.353553 -0.612372 0.707107 0.353553 -0.612372 0.707107 0.353553 -0.612372
0.612372 -0.353553 0.707107 0.612372 -0.353553 0.707107 0.612372 -0.353553
0.707107 -0.000000 0.707107 0.707107 -0.000000 0.707107 0.707107 -0.000000
0.923880 0.000000 0.382683 0.923880 0.000000 0.382683 0.923880 0.000000
0.800103 0.461940 0.382683 0.800103 0.461940 0.382683 0.800103 0.461940
0.461940 0.800103 0.382683 0.461940 0.800103 0.382683 0.461940 0.800103
0.000000 0.923880 0.382683 0.000000 0.923880 0.382683 0.000000 0.923880
-0.461940 0.800103 0.382683 -0.461940 0.800103 0.382683 -0.461940 0.800103
-0.800103 0.461940 0.382683 -0.800103 0.461940 0.382683 -0.800103 0.461940
-0.923880 0.000000 0.382683 -0.923880 0.000000 0.382683 -0.923880 0.000000
-0.800103 -0.461940 0.382683 -0.800103 -0.461940 0.382683 -0.800103 -0.461940
-0.461940 -0.800103 0.382683 -0.461940 -0.800103 0.382683 -0.461940 -0.800103
-0.000000 -0.923880 0.382683 -0.000000 -0.923880 0.382683 -0.000000 -0.923880
0.461940 -0.800103 0.382683 0.461940 -0.800103 0.382683 0.461940 -0.800103
0.800103 -0.461940 0.382683 0.800103 -0.461940 0.382683 0.800103 -0.461940
0.923880 -0.000000 0.382683 0.923880 -0.000000 0.382683 0.923880 -0.000000
1.000000 0.000000 0.000000 1.000000 0.000000 0.000000 1.000000 0.000000
0.866025 0.500000 0.000000 0.866025 0.500000 0.000000 0.866025 0.500000
0.500000 0.866025 0.000000 0.500000 0.866025 0.000000 0.500000 0.866025
0.000000 1.000000 0.000000 0.000000 1.000000 0.000000 0.000000 1.000000
-0.500000 0.866025 0.000000 -0.500000 0.866025 0.000000 -0.500000 0.866025
-0.866025 0.500000 0.000000 -0.866025 0.500000 0.000000 -0.866025 0.500000
-1.000000 0.000000 0.000000 -1.000000 0.000000 0.000000 -1.000000 0.000000
-0.866025 -0.500000 0.000000 -0.866025 -0.500000 0.000000 -0.866025 -0.500000
-0.500000 -0.866025 0.000000 -0.500000 -0.866025 0.000000 -0.500000 -0.866025
-0.000000 -1.000000 0.000000 -0.000000 -1.000000 0.000000 -0.000000 -1.000000
0.500000 -0.866025 0.000000 0.500000 -0.866025 0.000000 0.500000 -0.866025
0.866025 -0.500000 0.000000 0.866025 -0.500000 0.000000 0.866025 -0.500000
1.000000 -0.000000 0.000000 1.000000 -0.000000 0.000000 1.000000 -0.000000
0.923880 0.000000 -0.382683 0.923880 0.000000 -0.382683 0.923880 0.000000
0.800103 0.461940 -0.382683 0.800103 0.461940 -0.382683 0.800103 0.461940
0.461940 0.800103 -0.382683 0.461940 0.800103 -0.382683 0.461940 0.800103
0.000000 0.923880 -0.382683 0.000000 0.923880 -0.382683 0.000000 0.923880
-0.461940 0.800103 -0.382683 -0.461940 0.800103 -0.382683 -0.461940 0.800103
-0.800103 0.461940 -0.382683 -0.800103 0.461940 -0.382683 -0.800103 0.461940
-0.923880 0.000000 -0.382683 -0.923880 0.000000 -0.382683 -0.923880 0.000000
-0.800103 -0.461940 -0.382683 -0.800103 -0.461940 -0.382683 -0.800103 -0.461940
-0.461940 -0.800103 -0.382683 -0.461940 -0.800103 -0.382683 -0.461940 -0.800103
-0.000000 -0.923880 -0.382683 -0.000000 -0.923880 -0.382683 -0.000000 -0.923880
0.461940 -0.800103 -0.382683 0.461940 -0.800103 -0.382683 0.461940 -0.800103
0.800103 -0.461940 -0.382683 0.800103 -0.461940 -0.382683 0.800103 -0.461940
0.923880 -0.000000 -0.382683 0.923880 -0.000000 -0.382683 0.923880 -0.000000
0.707107 0.000000 -0.707107 0.707107 0.000000 -0.707107 0.707107 0.000000
0.612372 0.353553 -0.707107 0.612372 0.353553 -0.707107 0.612372 0.353553
0.353553 0.612372 -0.707107 0.353553 0.612372 -0.707107 0.353553 0.612372
0.000000 0.707107 -0.707107 0.000000 0.707107 -0.707107 0.000000 0.707107
-0.353553 0.612372 -0.707107 -0.353553 0.612372 -0.707107 -0.353553 0.612372
-0.612372 0.353553 -0.707107 -0.612372 0.353553 -0.707107 -0.612372 0.353553
-0.707107 0.000000 -0.707107 -0.707107 0.000000 -0.707107 -0.707107 0.000000
-0.612372 -0.353553 -0.707107 -0.612372 -0.353553 -0.707107 -0.612372 -0.353553
-0.353553 -0.612372 -0.707107 -0.353553 -0.612372 -0.707107 -0.353553 -0.612372
-0.000000 -0.707107 -0.707107 -0.000000 -0.707107 -0.707107 -0.000000 -0.707107
0.353553 -0.612372 -0.707107 0.353553 -0.612372 -0.707107 0.353553 -0.612372
0.612372 -0.353553 -0.707107 0.612372 -0.353553 -0.707107 0.612372 -0.353553
0.707107 -0.000000 -0.707107 0.707107 -0.000000 -0.707107 0.707107 -0.000000
0.382683 0.000000 -0.923880 0.382683 0.000000 -0.923880 0.382683 0.000000
0.331414 0.191342 -0.923880 0.331414 0.191342 -0.923880 0.331414 0.191342
0.191342 0.331414 -0.923880 0.191342 0.331414 -0.923880 0.191342 0.331414
0.000000 0.382683 -0.923880 0.000000 0.382683 -0.923880 0.000000 0.382683
-0.191342 0.331414 -0.923880 -0.191342 0.331414 -0.923880 -0.191342 0.331414
-0.331414 0.191342 -0.923880 -0.331414 0.191342 -0.923880 -0.331414 0.191342
-0.382683 0.000000 -0.923880 -0.382683 0.000000 -0.923880 -0.382683 0.000000
-0.331414 -0.191342 -0.923880 -0.331414 -0.191342 -0.923880 -0.331414 -0.191342
-0.191342 -0.331414 -0.923880 -0.191342 -0.331414 -0.923880 -0.191342 -0.331414
-0.000000 -0.382683 -0.923880 -0.000000 -0.382683 -0.923880 -0.000000 -0.382683
0.191342 -0.331414 -0.923880 0.191342 -0.331414 -0.923880 0.191342 -0.331414
0.331414 -0.191342 -0.923880 0.331414 -0.191342 -0.923880 0.331414 -0.191342
0.382683 -0.000000 -0.923880 0.382683 -0.000000 -0.923880 0.382683 -0.000000
0.000000 0.000000 -1.000000 0.000000 0.000000 0.000000 0.000000 0.000000
0.000000 0.000000 -1.000000 0.000000 0.000000 -1.000000 0.000000 0.000000
0.000000 0.000000 -1.000000 0.000000 0.000000 -1.000000 0.000000 0.000000
0.000000 0.000000 -1.000000 0.000000 0.000000 -1.000000 0.000000 0.000000
-0.000000 0.000000 -1.000000 -0.000000 0.000000 -1.000000 -0.000000 0.000000
-0.000000 0.000000 -1.000000 -0.000000 0.000000 -1.000000 -0.000000 0.000000
-0.000000 0.000000 -1.000000 -0.000000 0.000000 -1.000000 -0.000000 0.000000
-0.000000 -0.000000 -1.000000 -0.000000 -0.000000 -1.000000 -0.000000 -0.000000
-0.000000 -0.000000 -1.000000 -0.000000 -0.000000 -1.000000 -0.000000 -0.000000
-0.000000 -0.000000 -1.000000 -0.000000 -0.000000 -1.000000 -0.000000 -0.000000
0.000000 -0.000000 -1.000000 0.000000 -0.000000 -1.000000 0.000000 -0.000000
0.000000 -0.000000 -1.000000 0.000000 -0.000000 -1.000000 0.000000 -0.000000
0.000000 -0.000000 -1.000000 0.000000 -0.000000 -1.000000 0.000000 -0.000000
3 0 13 14
3 1 14 15
3 2 15 16
3 3 16 17
3 4 17 18
3 5 18 19
3 6 19 20
3 7 20 21
3 8 21 22
3 9 22 23
3 10 23 24
3 11 24 25
4 14 13 26 27
4 15 14 27 28
4 16 15 28 29
4 17 16 29 30
4 18 17 30 31
4 19 18 31 32
4 20 19 32 33
4 21 20 33 34
4 22 21 34 35
4 23 22 35 36
4 24 23 36 37
4 25 24 37 38
4 27 26 39 40
4 28 27 40 41
4 29 28 41 42
4 30 29 42 43
4 31 30 43 44
4 32 31 44 45
4 33 32 45 46
4 34 33 46 47
4 35 34 47 48
4 36 35 48 49
4 37 36 49 50
4 38 37 50 51
4 40 39 52 53
4 41 40 53 54
4 42 41 54 55
4 43 42 55 56
4 44 43 56 57
4 45 44 57 58
4 46 45 58 59
4 47 46 59 60
4 48 47 60 61
4 49 48 61 62
4 50 49 62 63
4 51 50 63 64
4 53 52 65 66
4 54 53 66 67
4 55 54 67 68
4 56 55 68 69
4 57 56 69 70
4 58 57 70 71
4 59 58 71 72
4 60 59 72 73
4 61 60 73 74
4 62 61 74 75
4 63 62 75 76
4 64 63 76 77
4 66 65 78 79
4 67 66 79 80
4 68 67 80 81
4 69 68 81 82
4 70 69 82 83
4 71 70 83 84
4 72 71 84 85
4 73 72 85 86
4 74 73 86 87
4 75 74 87 88
4 76 75 88 89
4 77 76 89 90
4 79 78 91 92
4 80 79 92 93
4 81 80 93 94
4 82 81 94 95
4 83 82 95 96
4 84 83 96 97
4 85 84 97 98
4 86 85 98 99
4 87 86 99 100
4 88 87 100 101
4 89 88 101 102
4 90 89 102 103
3 92 91 105
3 93 92 106
3 94 93 107
3 95 94 108
3 96 95 109
3 97 96 110
3 98 97 111
3 99 98 112
3 100 99 113
3 101 100 114
3 102 101 115
3 103 102 116
